<svg width="56" height="55" viewBox="0 0 56 55" fill="none" xmlns="http://www.w3.org/2000/svg">
<path d="M16.272 27.5C16.272 27.0442 16.4531 26.607 16.7754 26.2847C17.0977 25.9624 17.5349 25.7813 17.9907 25.7813H25.9955V17.7765C25.9955 17.3206 26.1766 16.8835 26.4989 16.5611C26.8213 16.2388 27.2584 16.0577 27.7143 16.0577C28.1701 16.0577 28.6073 16.2388 28.9296 16.5611C29.2519 16.8835 29.433 17.3206 29.433 17.7765V25.7813H37.4378C37.8936 25.7813 38.3308 25.9624 38.6531 26.2847C38.9755 26.607 39.1566 27.0442 39.1566 27.5C39.1566 27.9559 38.9755 28.393 38.6531 28.7154C38.3308 29.0377 37.8936 29.2188 37.4378 29.2188H29.433V37.2236C29.433 37.6794 29.2519 38.1166 28.9296 38.4389C28.6073 38.7612 28.1701 38.9423 27.7143 38.9423C27.2584 38.9423 26.8213 38.7612 26.4989 38.4389C26.1766 38.1166 25.9955 37.6794 25.9955 37.2236V29.2188H17.9907C17.5349 29.2188 17.0977 29.0377 16.7754 28.7154C16.4531 28.393 16.272 27.9559 16.272 27.5Z" fill="black"/>
<path fill-rule="evenodd" clip-rule="evenodd" d="M16.9824 8.63732C24.1151 7.84656 31.3134 7.84656 38.4462 8.63732C42.633 9.10482 46.0132 12.4025 46.5036 16.6123C47.3516 23.8471 47.3516 31.1552 46.5036 38.39C46.0109 42.5998 42.6307 45.8952 38.4462 46.365C31.3134 47.1558 24.1151 47.1558 16.9824 46.365C12.7955 45.8952 9.41531 42.5998 8.9249 38.39C8.08078 31.1553 8.08078 23.847 8.9249 16.6123C9.41531 12.4025 12.7978 9.10482 16.9824 8.63732ZM38.0657 12.0519C31.1858 11.2893 24.2427 11.2893 17.3628 12.0519C16.0892 12.1932 14.9004 12.7597 13.9885 13.66C13.0766 14.5603 12.4948 15.7417 12.3372 17.0134C11.5221 23.9822 11.5221 31.0224 12.3372 37.9913C12.4953 39.2626 13.0773 40.4434 13.9892 41.3432C14.901 42.243 16.0895 42.8093 17.3628 42.9504C24.1851 43.7113 31.2434 43.7113 38.0657 42.9504C39.3386 42.8088 40.5266 42.2423 41.438 41.3426C42.3494 40.4428 42.931 39.2622 43.0891 37.9913C43.9041 31.0224 43.9041 23.9822 43.0891 17.0134C42.9306 15.7428 42.3487 14.5628 41.4373 13.6635C40.526 12.7641 39.3382 12.1981 38.0657 12.0565" fill="black"/>
</svg>
